<svg xmlns="http://www.w3.org/2000/svg" xmlns:xlink="http://www.w3.org/1999/xlink" viewBox="0 0 393 105"><defs><style>.cls-1{fill:url(#Degradado_sin_nombre_4);}.cls-2{fill:url(#Degradado_sin_nombre_16);}.cls-3{fill:url(#Degradado_sin_nombre_11);}.cls-4{fill:url(#Degradado_sin_nombre_5);}.cls-5{fill:url(#Degradado_sin_nombre_5-2);}.cls-6{fill:url(#Degradado_sin_nombre_5-3);}.cls-7{fill:url(#Degradado_sin_nombre_5-4);}.cls-8{fill:url(#Degradado_sin_nombre_5-5);}.cls-9{fill:url(#Degradado_sin_nombre_5-6);}.cls-10{fill:url(#Degradado_sin_nombre_5-7);}.cls-11{fill:url(#Degradado_sin_nombre_5-8);}.cls-12{fill:url(#Degradado_sin_nombre_5-9);}.cls-13{fill:url(#Degradado_sin_nombre_5-10);}.cls-14{fill:url(#Degradado_sin_nombre_5-11);}.cls-15{fill:url(#Degradado_sin_nombre_5-12);}.cls-16{fill:url(#Degradado_sin_nombre_5-13);}.cls-17{fill:url(#Degradado_sin_nombre_5-14);}.cls-18{fill:url(#Degradado_sin_nombre_5-15);}.cls-19{fill:url(#Degradado_sin_nombre_5-16);}.cls-20{fill:url(#Degradado_sin_nombre_5-17);}</style><linearGradient id="Degradado_sin_nombre_4" x1="49.54" y1="6.64" x2="49.54" y2="83.77" gradientUnits="userSpaceOnUse"><stop offset="0.04" stop-color="#f4be28"/><stop offset="0.45" stop-color="#f4bc29"/><stop offset="0.67" stop-color="#f2b42c"/><stop offset="0.84" stop-color="#f0a632"/><stop offset="0.99" stop-color="#ec933a"/><stop offset="1" stop-color="#ec923a"/></linearGradient><linearGradient id="Degradado_sin_nombre_16" x1="32" y1="27.49" x2="30.2" y2="21.35" gradientUnits="userSpaceOnUse"><stop offset="0.04" stop-color="#f4be28"/><stop offset="0.27" stop-color="#f3bb29"/><stop offset="0.47" stop-color="#f2b02e"/><stop offset="0.65" stop-color="#ee9f35"/><stop offset="0.75" stop-color="#ec923a"/></linearGradient><linearGradient id="Degradado_sin_nombre_11" x1="42.45" x2="42.45" y2="85.4" gradientUnits="userSpaceOnUse"><stop offset="0" stop-color="#3d9ac7"/><stop offset="0.23" stop-color="#3795c2"/><stop offset="0.53" stop-color="#2886b2"/><stop offset="0.86" stop-color="#0e6e99"/><stop offset="1" stop-color="#00618b"/></linearGradient><linearGradient id="Degradado_sin_nombre_5" x1="122.41" y1="1.59" x2="122.41" y2="36.09" gradientUnits="userSpaceOnUse"><stop offset="0" stop-color="#003f89"/><stop offset="1" stop-color="#001c4d"/></linearGradient><linearGradient id="Degradado_sin_nombre_5-2" x1="159.72" y1="9.92" x2="159.72" y2="36.74" xlink:href="#Degradado_sin_nombre_5"/><linearGradient id="Degradado_sin_nombre_5-3" x1="196.71" y1="9.91" x2="196.71" y2="36.09" xlink:href="#Degradado_sin_nombre_5"/><linearGradient id="Degradado_sin_nombre_5-4" x1="233.19" y1="9.92" x2="233.19" y2="36.74" xlink:href="#Degradado_sin_nombre_5"/><linearGradient id="Degradado_sin_nombre_5-5" x1="262.16" y1="9.92" x2="262.16" y2="36.09" xlink:href="#Degradado_sin_nombre_5"/><linearGradient id="Degradado_sin_nombre_5-6" x1="291.89" y1="0.07" x2="291.89" y2="36.09" xlink:href="#Degradado_sin_nombre_5"/><linearGradient id="Degradado_sin_nombre_5-7" x1="310.04" y1="9.92" x2="310.04" y2="36.09" xlink:href="#Degradado_sin_nombre_5"/><linearGradient id="Degradado_sin_nombre_5-8" x1="118.79" y1="48.75" x2="118.79" y2="84.98" xlink:href="#Degradado_sin_nombre_5"/><linearGradient id="Degradado_sin_nombre_5-9" x1="152.66" y1="57.94" x2="152.66" y2="84.77" xlink:href="#Degradado_sin_nombre_5"/><linearGradient id="Degradado_sin_nombre_5-10" x1="183.93" y1="57.94" x2="183.93" y2="93.45" xlink:href="#Degradado_sin_nombre_5"/><linearGradient id="Degradado_sin_nombre_5-11" x1="213.84" y1="57.94" x2="213.84" y2="84.77" xlink:href="#Degradado_sin_nombre_5"/><linearGradient id="Degradado_sin_nombre_5-12" x1="236.89" y1="57.94" x2="236.89" y2="84.11" xlink:href="#Degradado_sin_nombre_5"/><linearGradient id="Degradado_sin_nombre_5-13" x1="255.82" y1="57.94" x2="255.82" y2="84.11" xlink:href="#Degradado_sin_nombre_5"/><linearGradient id="Degradado_sin_nombre_5-14" x1="273.69" y1="48.09" x2="273.69" y2="84.11" xlink:href="#Degradado_sin_nombre_5"/><linearGradient id="Degradado_sin_nombre_5-15" x1="292.5" y1="57.94" x2="292.5" y2="84.77" xlink:href="#Degradado_sin_nombre_5"/><linearGradient id="Degradado_sin_nombre_5-16" x1="321.09" y1="58.6" x2="321.09" y2="84.77" xlink:href="#Degradado_sin_nombre_5"/><linearGradient id="Degradado_sin_nombre_5-17" x1="343.32" y1="57.94" x2="343.32" y2="84.77" xlink:href="#Degradado_sin_nombre_5"/></defs><title>Starndard-WiC</title><g id="Capa_2" data-name="Capa 2"><g id="Capa_1-2" data-name="Capa 1"><path class="cls-1" d="M31.16,49.14a4.12,4.12,0,0,1-2.71-1.72c-.67-1.11.12-2,1.29-2.12a2.63,2.63,0,0,1-2.29-1.75,2.12,2.12,0,0,1,.8-1.86c.35-.4.76-.78,1.08-1.21a1.31,1.31,0,0,0-.37-2c-.85-.69-1.73-1.36-2.56-2.08s-.37-1.63.34-2.33l5.2-5.19a6.4,6.4,0,0,0,.67-.71c.8-1.1.48-2.21.29-3.43A16.68,16.68,0,0,1,40.47,8.19a8.28,8.28,0,0,1,3.9-1.55A16.25,16.25,0,0,0,42,26.6a16.29,16.29,0,0,0,8,6.55c1.78.67,3.67.84,5.47,1.42A25.37,25.37,0,0,1,60.75,37,25.63,25.63,0,0,1,54,83.77a15.21,15.21,0,0,0-6.55-29.15,15.13,15.13,0,0,0-4.42.81c-1.18.4-2.22,1-3.36,1.52-2.11.89-5.63,2-7.4-.16-.8-1-.76-2.27-.83-3.46C31.34,51.93,31.29,50.53,31.16,49.14Z"/><path class="cls-2" d="M33.37,27.09a6.59,6.59,0,0,1-1.92-.66,5.93,5.93,0,0,1-1.56-1.16,4.68,4.68,0,0,1-1-1.57A5.75,5.75,0,0,1,28.42,22a5.73,5.73,0,0,0,.81,1.53,4.1,4.1,0,0,0,1.22,1.1,5.11,5.11,0,0,0,3,.72Z"/><path class="cls-3" d="M84.9,36a39,39,0,0,0-61.2-21.7,39,39,0,0,0-1.61,61.24c8.12,6.77,19.47,10.45,30,8.56L54,83.77a22.24,22.24,0,0,1-6.2,1.34A42.73,42.73,0,1,1,84.9,36Z"/><path class="cls-4" d="M101.58,1.59h3.54l7,24.86,9.89-24.86h.71l9.78,24.86,7.16-24.86h3.52l-9.91,34.5h-.64L122.44,10,112,36.09h-.65Z"/><path class="cls-5" d="M159.73,9.92a12.61,12.61,0,0,1,9.77,4.27A13.24,13.24,0,0,1,173,23.4a13.29,13.29,0,0,1-3.72,9.35,13.51,13.51,0,0,1-19.17,0,13.29,13.29,0,0,1-3.72-9.35,13.23,13.23,0,0,1,3.52-9.19A12.64,12.64,0,0,1,159.73,9.92Zm0,3.21a9.5,9.5,0,0,0-7,3,10.13,10.13,0,0,0-2.94,7.32,10.29,10.29,0,0,0,1.34,5.16,9.38,9.38,0,0,0,3.62,3.69,10.25,10.25,0,0,0,10,0,9.38,9.38,0,0,0,3.62-3.69,10.29,10.29,0,0,0,1.34-5.16,10.1,10.1,0,0,0-2.95-7.32A9.5,9.5,0,0,0,159.72,13.13Z"/><path class="cls-6" d="M214.8,15a7.94,7.94,0,0,0-3-3.73,8.28,8.28,0,0,0-4.67-1.34,9.73,9.73,0,0,0-5.29,1.57,10.35,10.35,0,0,0-2.47,2.18A13.81,13.81,0,0,0,197.75,16a10.59,10.59,0,0,0-1.83-3.46,7.72,7.72,0,0,0-2.72-1.94,8.82,8.82,0,0,0-3.53-.73,10,10,0,0,0-5.23,1.51A12.66,12.66,0,0,0,180.92,15V10.57h-3.29V36.09h3.29V25.28a20.06,20.06,0,0,1,.94-7.11,8.2,8.2,0,0,1,2.94-3.69,7.3,7.3,0,0,1,4.25-1.38,5.82,5.82,0,0,1,3.41,1,5.17,5.17,0,0,1,2,2.64A22.47,22.47,0,0,1,195,23V36.09h3.28v-10q0-5.49.91-7.84a8.14,8.14,0,0,1,1.12-2,7.82,7.82,0,0,1,1.77-1.72,7.36,7.36,0,0,1,4.35-1.41,6,6,0,0,1,3.38.94,5.05,5.05,0,0,1,2,2.48,18.11,18.11,0,0,1,.59,5.64V36.09h3.34V22.16A19.84,19.84,0,0,0,214.8,15Z"/><path class="cls-7" d="M242.74,27.62l2.77,1.46a15.06,15.06,0,0,1-3.14,4.31,12.39,12.39,0,0,1-4,2.5,14,14,0,0,1-5,.85q-6.26,0-9.77-4.09A13.79,13.79,0,0,1,220,23.4a13.6,13.6,0,0,1,3-8.65,12.19,12.19,0,0,1,10.12-4.83,12.59,12.59,0,0,1,10.42,4.95,13.87,13.87,0,0,1,2.82,8.72h-23a10.4,10.4,0,0,0,2.84,7.29A9.07,9.07,0,0,0,233,33.72a11,11,0,0,0,3.8-.68,10,10,0,0,0,3.13-1.8A15.05,15.05,0,0,0,242.74,27.62Zm0-6.87a10.77,10.77,0,0,0-1.91-4.2A9.11,9.11,0,0,0,237.51,14a10.22,10.22,0,0,0-4.35-1,9.34,9.34,0,0,0-6.45,2.41,10.92,10.92,0,0,0-3,5.28Z"/><path class="cls-8" d="M251,10.57h3.29v4.58a13.68,13.68,0,0,1,4.36-3.93,10.68,10.68,0,0,1,5.21-1.3A9,9,0,0,1,269,11.37a8.64,8.64,0,0,1,3.27,3.92c.71,1.64,1.06,4.19,1.06,7.67V36.09H270V23.92a30.23,30.23,0,0,0-.37-5.89,6.44,6.44,0,0,0-2.19-3.81,6.61,6.61,0,0,0-4.22-1.28,8.13,8.13,0,0,0-5.34,2,9.25,9.25,0,0,0-3.1,4.88,33.39,33.39,0,0,0-.47,6.94v9.36H251Z"/><path class="cls-9" d="M291.88.07a2.58,2.58,0,0,1,1.91.8,2.61,2.61,0,0,1,.79,1.92,2.6,2.6,0,0,1-.79,1.9,2.61,2.61,0,0,1-1.91.8,2.55,2.55,0,0,1-1.89-.8,2.61,2.61,0,0,1-.8-1.9A2.62,2.62,0,0,1,290,.87,2.52,2.52,0,0,1,291.88.07Zm-1.63,10.5h3.28V36.09h-3.28Z"/><path class="cls-10" d="M298.91,10.57h3.29v4.58a13.68,13.68,0,0,1,4.36-3.93,10.67,10.67,0,0,1,5.2-1.3,9,9,0,0,1,5.08,1.45,8.64,8.64,0,0,1,3.27,3.92A20.74,20.74,0,0,1,321.17,23V36.09h-3.29V23.92a30.5,30.5,0,0,0-.36-5.89,6.44,6.44,0,0,0-2.19-3.81,6.63,6.63,0,0,0-4.22-1.28,8.11,8.11,0,0,0-5.34,2,9.27,9.27,0,0,0-3.11,4.88,34.34,34.34,0,0,0-.46,6.94v9.36h-3.29Z"/><path class="cls-11" d="M135.65,56l-2.72,2.09a14.85,14.85,0,0,0-5.4-4.45,15.78,15.78,0,0,0-6.93-1.51,15.36,15.36,0,0,0-7.65,2,14.25,14.25,0,0,0-5.45,5.33A14.69,14.69,0,0,0,105.57,67a14.11,14.11,0,0,0,4.32,10.53,15,15,0,0,0,10.92,4.22,15.35,15.35,0,0,0,12.12-5.67l2.72,2.06a17.41,17.41,0,0,1-6.43,5.08A20.3,20.3,0,0,1,120.6,85q-9.06,0-14.28-6a18.13,18.13,0,0,1-4.39-12.28,17.1,17.1,0,0,1,5.31-12.75,18.32,18.32,0,0,1,13.31-5.17,19.63,19.63,0,0,1,8.73,1.91A16.93,16.93,0,0,1,135.65,56Z"/><path class="cls-12" d="M152.67,57.94a12.65,12.65,0,0,1,9.77,4.27,13.68,13.68,0,0,1-.2,18.56,13.48,13.48,0,0,1-19.17,0,13.68,13.68,0,0,1-.2-18.54A12.64,12.64,0,0,1,152.67,57.94Zm0,3.22a9.46,9.46,0,0,0-7,3,10.13,10.13,0,0,0-2.94,7.32A10.45,10.45,0,0,0,144,76.66a9.51,9.51,0,0,0,3.62,3.69,10.32,10.32,0,0,0,10,0,9.51,9.51,0,0,0,3.62-3.69,10.36,10.36,0,0,0,1.35-5.16,10.11,10.11,0,0,0-3-7.32A9.46,9.46,0,0,0,152.66,61.16Z"/><path class="cls-13" d="M170.64,58.6h3.29v4.69a13.18,13.18,0,0,1,4.47-4,11.93,11.93,0,0,1,5.65-1.34,12.61,12.61,0,0,1,9.3,3.92,12.91,12.91,0,0,1,3.86,9.43,13.14,13.14,0,0,1-3.83,9.55,12.88,12.88,0,0,1-14.84,2.66,14,14,0,0,1-4.61-3.77V93.45h-3.29Zm13.14,2.51a9.64,9.64,0,0,0-7.17,3,10.15,10.15,0,0,0-2.92,7.41,10.58,10.58,0,0,0,1.3,5.22,9.61,9.61,0,0,0,3.72,3.68,10.36,10.36,0,0,0,5.11,1.35,9.61,9.61,0,0,0,5-1.37,10.07,10.07,0,0,0,3.7-3.82,10.4,10.4,0,0,0,1.38-5.16,10.27,10.27,0,0,0-1.37-5.15,9.89,9.89,0,0,0-8.73-5.13Z"/><path class="cls-14" d="M223.4,75.65l2.76,1.45A15.06,15.06,0,0,1,223,81.42a12.6,12.6,0,0,1-4,2.49,14,14,0,0,1-5,.86q-6.24,0-9.76-4.09a13.8,13.8,0,0,1-3.53-9.25,13.66,13.66,0,0,1,3-8.66,12.17,12.17,0,0,1,10.11-4.83,12.59,12.59,0,0,1,10.42,5A13.79,13.79,0,0,1,227,71.61h-23a10.37,10.37,0,0,0,2.84,7.29,9,9,0,0,0,6.79,2.84,10.93,10.93,0,0,0,3.79-.67,9.85,9.85,0,0,0,3.13-1.8A15.47,15.47,0,0,0,223.4,75.65Zm0-6.87a10.92,10.92,0,0,0-1.92-4.2,8.92,8.92,0,0,0-3.32-2.53,10.18,10.18,0,0,0-4.34-1,9.35,9.35,0,0,0-6.46,2.41,10.91,10.91,0,0,0-3,5.28Z"/><path class="cls-15" d="M230.45,58.6h3.35v3.73A11.81,11.81,0,0,1,237,59a6.31,6.31,0,0,1,3.47-1.09,6,6,0,0,1,2.91.87l-1.71,2.77a4.56,4.56,0,0,0-1.73-.45,4.75,4.75,0,0,0-3.17,1.35,8.51,8.51,0,0,0-2.32,4.19q-.61,2.17-.61,8.81v8.63h-3.35Z"/><path class="cls-16" d="M244.69,58.6H248v4.57a13.68,13.68,0,0,1,4.36-3.93,10.78,10.78,0,0,1,5.2-1.3,9.05,9.05,0,0,1,5.08,1.46,8.62,8.62,0,0,1,3.27,3.91Q267,65.77,267,71V84.11h-3.29V71.94a30.3,30.3,0,0,0-.36-5.88,6.44,6.44,0,0,0-2.19-3.81A6.57,6.57,0,0,0,256.89,61a8.06,8.06,0,0,0-5.34,2,9.23,9.23,0,0,0-3.11,4.88,34.27,34.27,0,0,0-.46,6.94v9.35h-3.29Z"/><path class="cls-17" d="M273.68,48.09a2.7,2.7,0,0,1,1.91,4.62,2.66,2.66,0,0,1-3.8,0,2.59,2.59,0,0,1-.8-1.9,2.62,2.62,0,0,1,.8-1.92A2.59,2.59,0,0,1,273.68,48.09ZM272.05,58.6h3.28V84.11h-3.28Z"/><path class="cls-18" d="M305.48,63.9l-2.6,1.62A10.9,10.9,0,0,0,293.67,61a10.63,10.63,0,0,0-7.74,3,9.79,9.79,0,0,0-3.08,7.28,10.3,10.3,0,0,0,1.42,5.25,10,10,0,0,0,3.88,3.82,11.39,11.39,0,0,0,5.54,1.35,11.23,11.23,0,0,0,9.19-4.47l2.6,1.71a12.35,12.35,0,0,1-4.91,4.27,15.76,15.76,0,0,1-7,1.52,13.83,13.83,0,0,1-10-3.85,12.49,12.49,0,0,1-4-9.35,13.42,13.42,0,0,1,1.86-6.89,13.13,13.13,0,0,1,5.13-5,14.91,14.91,0,0,1,7.29-1.79,15.45,15.45,0,0,1,4.89.78,13.75,13.75,0,0,1,4,2A11.15,11.15,0,0,1,305.48,63.9Z"/><path class="cls-19" d="M309.92,58.6h3.29V70.51a25.13,25.13,0,0,0,.47,6,6.67,6.67,0,0,0,2.69,3.7,8.13,8.13,0,0,0,4.73,1.36,8,8,0,0,0,4.66-1.32,6.76,6.76,0,0,0,2.64-3.49,24.54,24.54,0,0,0,.49-6.26V58.6h3.36V71.12A19.81,19.81,0,0,1,331,79.07a9.44,9.44,0,0,1-3.71,4.19,11.67,11.67,0,0,1-6.2,1.51,11.83,11.83,0,0,1-6.23-1.51A9.37,9.37,0,0,1,311.16,79q-1.25-2.72-1.24-8.15Z"/><path class="cls-20" d="M350.93,61.39l-2.11,2.18Q346.18,61,343.67,61a3.9,3.9,0,0,0-2.74,1,3.25,3.25,0,0,0-1.14,2.46,3.63,3.63,0,0,0,.94,2.37,13,13,0,0,0,3.95,2.7,14.61,14.61,0,0,1,5,3.66,6.65,6.65,0,0,1,1.29,4,7.2,7.2,0,0,1-2.21,5.32,7.55,7.55,0,0,1-5.52,2.18,9.64,9.64,0,0,1-4.21-1,9.24,9.24,0,0,1-3.33-2.65l2.07-2.35c1.68,1.9,3.45,2.84,5.33,2.84a4.81,4.81,0,0,0,3.37-1.27,3.9,3.9,0,0,0,1.38-3,3.8,3.8,0,0,0-.91-2.51,14.74,14.74,0,0,0-4.14-2.72,13.26,13.26,0,0,1-4.7-3.52,6.64,6.64,0,0,1-1.25-4,6.45,6.45,0,0,1,2-4.83,6.87,6.87,0,0,1,5-1.93Q347.36,57.94,350.93,61.39Z"/></g></g></svg>